<svg width="24" height="24" viewBox="0 0 24 24" fill="none" xmlns="http://www.w3.org/2000/svg">
<path d="M18 8.78571V5.13716C18 4.90361 17.8107 4.71429 17.5771 4.71429V4.71429C15.8859 4.71429 14.2214 4.29164 12.7351 3.48476L10.2385 2.1295C10.0898 2.04873 9.91023 2.04873 9.76145 2.1295L7.26491 3.48476C5.77856 4.29164 4.11412 4.71429 2.42288 4.71429V4.71429C2.18933 4.71429 2 4.90361 2 5.13716V11.2262C2 14.4704 3.74599 17.4635 6.56995 19.0604L9.75389 20.8608C9.9066 20.9472 10.0934 20.9472 10.2461 20.8608L12 19.869" stroke="#3B8AC9" stroke-width="1.5" stroke-linecap="round" stroke-linejoin="round"/>
<path d="M10 2V21" stroke="#3B8AC9" stroke-width="1.5" stroke-linecap="round" stroke-linejoin="round"/>
<path d="M2 12H13" stroke="#3B8AC9" stroke-width="1.5" stroke-linecap="round" stroke-linejoin="round"/>
<circle cx="18.0714" cy="17.0714" r="4.07143" stroke="#3B8AC9" stroke-width="1.5"/>
<path d="M18.0714 15.7143V18.4286" stroke="#3B8AC9" stroke-width="1.5" stroke-linecap="round" stroke-linejoin="round"/>
<path d="M19.4286 17.0714L16.7143 17.0714" stroke="#3B8AC9" stroke-width="1.5" stroke-linecap="round" stroke-linejoin="round"/>
</svg>
