<svg width="24" height="24" viewBox="0 0 24 24" fill="none" xmlns="http://www.w3.org/2000/svg">
<path d="M3 16.4762L7.5094 12.8686C7.51873 12.8612 7.53032 12.8571 7.54227 12.8571H12.7262C13.3508 12.8571 13.8571 13.3635 13.8571 13.9881V13.9881C13.8571 14.6127 13.3508 15.119 12.7262 15.119H8.65476C8.03016 15.119 7.52381 15.6254 7.52381 16.25V16.25C7.52381 16.8746 8.03015 17.3809 8.65476 17.3809H12.0387C12.0446 17.3809 12.0503 17.3796 12.0556 17.377L18.4356 14.1869C18.9433 13.9331 19.5564 14.0326 19.9578 14.434V14.434C20.5462 15.0224 20.4492 16.0021 19.7568 16.4637L14.3248 20.085C13.4299 20.6816 12.3785 21 11.3029 21H3" stroke="#3B8AC9" stroke-width="1.5" stroke-linecap="round" stroke-linejoin="round"/>
<circle cx="11.5952" cy="6.07143" r="4.07143" stroke="#3B8AC9" stroke-width="1.5"/>
<path d="M11.5952 4.71429V7.42858" stroke="#3B8AC9" stroke-width="1.5" stroke-linecap="round" stroke-linejoin="round"/>
<path d="M12.9524 6.07141L10.2381 6.07141" stroke="#3B8AC9" stroke-width="1.5" stroke-linecap="round" stroke-linejoin="round"/>
</svg>
