<svg width="24" height="24" viewBox="0 0 24 24" fill="none" xmlns="http://www.w3.org/2000/svg">
<path d="M12 13L12 10" stroke="#3B8AC9" stroke-width="1.5" stroke-linecap="round" stroke-linejoin="round"/>
<path fill-rule="evenodd" clip-rule="evenodd" d="M22.5004 9.73207C22.4885 4.76145 17.5168 1.00077 11.7522 1L11.7497 1L11.7465 1.00001C5.9831 1.0017 1.01275 4.7618 1.00047 9.73155C0.99934 9.7774 1.00244 9.82378 1.01002 9.87016C1.04232 10.0707 1.15414 10.2447 1.3121 10.3586C1.39976 10.4219 1.50163 10.4667 1.612 10.4873C1.69585 10.5031 1.78322 10.5047 1.8706 10.4904C1.91629 10.4831 1.9606 10.4716 2.00313 10.4564C3.62819 9.92049 5.4145 10.2417 6.75125 11.3111L6.7713 11.3272C6.79237 11.3446 6.81433 11.3609 6.83707 11.3759C6.9279 11.436 7.02797 11.4739 7.1303 11.4905C7.23259 11.5071 7.33952 11.5028 7.44472 11.4745C7.47104 11.4674 7.49703 11.4589 7.52254 11.449L10.0642 10.5126C11.2995 10.0575 12.6607 10.083 13.878 10.5843L15.9543 11.4392C16.0705 11.4889 16.198 11.5089 16.3244 11.4965C16.4261 11.4865 16.527 11.4556 16.6206 11.4023C16.6395 11.3916 16.658 11.3801 16.676 11.3677L17.4261 10.8676C18.6187 10.0725 20.1252 9.91324 21.4573 10.4405C21.5047 10.4607 21.5545 10.4761 21.6063 10.4862C21.8056 10.5254 22.0085 10.4808 22.1708 10.3713C22.3318 10.2621 22.4481 10.092 22.4866 9.89416C22.4973 9.84009 22.5017 9.78577 22.5004 9.73207ZM11.7237 2.81227C11.0718 3.47479 10.2693 4.42869 9.57491 5.54592C8.78322 6.81967 8.1675 8.24871 8.02948 9.66369L9.54559 9.1051C11.1338 8.51992 12.884 8.55281 14.4491 9.19725L15.4573 9.61235C15.2963 8.37988 14.6999 7.0277 13.9226 5.75296C13.2128 4.5889 12.3896 3.54983 11.7237 2.81227ZM16.9427 9.40425C16.7381 7.86255 16.0153 6.30381 15.2033 4.97205C14.6767 4.10847 14.0939 3.31025 13.5452 2.63487C17.4601 3.23365 20.3605 5.75355 20.9072 8.72993C19.5557 8.48227 18.15 8.71581 16.9427 9.40425ZM2.58493 8.77881C3.94053 8.56894 5.32742 8.79002 6.54817 9.40682C6.73738 7.7132 7.46501 6.099 8.30094 4.75409C8.78869 3.96935 9.32485 3.25776 9.83904 2.65333C5.962 3.28736 3.10351 5.81086 2.58493 8.77881Z" fill="#3B8AC9"/>
<path d="M9 23V21.369C9 21.1428 9.12776 20.9361 9.33003 20.835V20.835C11.0108 19.9946 12.9892 19.9946 14.67 20.835V20.835C14.8722 20.9361 15 21.1428 15 21.369V23" stroke="#3B8AC9" stroke-width="1.5" stroke-linecap="round" stroke-linejoin="round"/>
<circle cx="12" cy="17" r="2" stroke="#3B8AC9" stroke-width="1.5"/>
<path d="M3 22V20.369C3 20.1428 3.12776 19.9361 3.33003 19.835L4 19.5C5.25903 18.8705 6.74097 18.8705 8 19.5V19.5" stroke="#3B8AC9" stroke-width="1.5" stroke-linecap="round" stroke-linejoin="round"/>
<path d="M21 22V20.369C21 20.1428 20.8722 19.9361 20.67 19.835L20 19.5C18.741 18.8705 17.259 18.8705 16 19.5V19.5" stroke="#3B8AC9" stroke-width="1.5" stroke-linecap="round" stroke-linejoin="round"/>
<circle cx="6" cy="16" r="2" stroke="#3B8AC9" stroke-width="1.5"/>
<circle cx="2" cy="2" r="2" transform="matrix(-1 0 0 1 20 14)" stroke="#3B8AC9" stroke-width="1.5"/>
</svg>
