<svg width="24" height="24" viewBox="0 0 24 24" fill="none" xmlns="http://www.w3.org/2000/svg">
<path d="M14 5C13 5 11.909 5.79101 11 7.01348C10.091 5.79101 8.642 5 7.004 5C4.241 5 2 7.24719 2 10.0247C2 16.3169 7.832 20.0292 10.442 20.9191C10.748 21.027 11.252 21.027 11.558 20.9191C14.168 20.0292 20 16.3169 20 10.0247" stroke="#3B8AC9" stroke-width="1.5" stroke-linecap="round" stroke-linejoin="round"/>
<path d="M4 15.6429H8.89269C9.05501 15.6429 9.20723 15.7217 9.30094 15.8542L10.0612 16.9294C10.3263 17.3044 10.9144 17.1535 10.9662 16.6972L11.4695 12.268C11.5301 11.735 12.2735 11.6585 12.4413 12.1681L13.3313 14.8707C13.3988 15.0757 13.5903 15.2143 13.8062 15.2143H18.5" stroke="#3B8AC9" stroke-width="1.5" stroke-linecap="round" stroke-linejoin="round"/>
<circle cx="18.0714" cy="6.07143" r="4.07143" stroke="#3B8AC9" stroke-width="1.5"/>
<path d="M18.0714 4.71429V7.42858" stroke="#3B8AC9" stroke-width="1.5" stroke-linecap="round" stroke-linejoin="round"/>
<path d="M19.4286 6.07141L16.7143 6.07141" stroke="#3B8AC9" stroke-width="1.5" stroke-linecap="round" stroke-linejoin="round"/>
</svg>
