<svg width="24" height="24" viewBox="0 0 24 24" fill="none" xmlns="http://www.w3.org/2000/svg">
<path d="M2 9V6.5C2 4.01 4.01 2 6.5 2H9" stroke="#3B8AC9" stroke-width="1.5" stroke-linecap="round" stroke-linejoin="round"/>
<path d="M15 2H17.5C19.99 2 22 4.01 22 6.5V9" stroke="#3B8AC9" stroke-width="1.5" stroke-linecap="round" stroke-linejoin="round"/>
<path d="M22 16V17.5C22 19.99 19.99 22 17.5 22H16" stroke="#3B8AC9" stroke-width="1.5" stroke-linecap="round" stroke-linejoin="round"/>
<path d="M9 22H6.5C4.01 22 2 19.99 2 17.5V15" stroke="#3B8AC9" stroke-width="1.5" stroke-linecap="round" stroke-linejoin="round"/>
<path d="M16.4202 10.2855C16.4202 11.1732 16.1569 11.9874 15.7039 12.667C15.0427 13.6465 13.9958 14.3383 12.7775 14.5158C12.5694 14.5526 12.3551 14.5709 12.1347 14.5709C11.9143 14.5709 11.7 14.5526 11.4919 14.5158C10.2736 14.3383 9.22672 13.6465 8.56553 12.667C8.11249 11.9874 7.84924 11.1732 7.84924 10.2855C7.84924 7.91622 9.76546 6 12.1347 6C14.504 6 16.4202 7.91622 16.4202 10.2855Z" stroke="#3B8AC9" stroke-width="1.5" stroke-linecap="round" stroke-linejoin="round"/>
<path d="M17.7976 16.0831L16.7875 16.3219C16.561 16.377 16.3834 16.5484 16.3345 16.7749L16.1202 17.6749C16.0039 18.1646 15.3794 18.3116 15.0549 17.9259L12.1347 14.571L9.21446 17.932C8.88999 18.3177 8.26554 18.1707 8.14922 17.681L7.93494 16.781C7.87984 16.5545 7.7023 16.377 7.48191 16.328L6.47176 16.0892C6.00648 15.979 5.84118 15.3974 6.1779 15.0607L8.56552 12.6731C9.22671 13.6526 10.2736 14.3444 11.4919 14.522C11.7 14.5587 11.9143 14.5771 12.1347 14.5771C12.3551 14.5771 12.5694 14.5587 12.7775 14.522C13.9958 14.3444 15.0427 13.6526 15.7039 12.6731L18.0915 15.0607C18.4282 15.3913 18.2629 15.9729 17.7976 16.0831Z" stroke="#3B8AC9" stroke-width="1.5" stroke-linecap="round" stroke-linejoin="round"/>
<path d="M10.6141 10.1515H13.6141" stroke="#3B8AC9" stroke-width="1.5" stroke-linecap="round" stroke-linejoin="round"/>
</svg>
