<svg width="24" height="24" viewBox="0 0 24 24" fill="none" xmlns="http://www.w3.org/2000/svg">
<path d="M5.87868 21.1213L5.34835 21.6516H5.34835L5.87868 21.1213ZM18.1213 21.1213L18.6517 21.6516L18.1213 21.1213ZM18.9743 12.6084L19.7179 12.5105V12.5105L18.9743 12.6084ZM16.3916 10.0257L16.4895 9.28208L16.3916 10.0257ZM5.40192 11.5L6.05144 11.875L5.40192 11.5ZM6.5 10.4019L6.875 11.0514L6.5 10.4019ZM2.29289 18.7071L2.82322 18.1768H2.82322L2.29289 18.7071ZM19 12.25C18.5858 12.25 18.25 12.5858 18.25 13C18.25 13.4142 18.5858 13.75 19 13.75V12.25ZM19 18.25C18.5858 18.25 18.25 18.5858 18.25 19C18.25 19.4142 18.5858 19.75 19 19.75V18.25ZM21.7071 18.7071L21.1768 18.1768L21.7071 18.7071ZM11 17.75C10.5858 17.75 10.25 18.0858 10.25 18.5C10.25 18.9142 10.5858 19.25 11 19.25V17.75ZM13.5 19.25C13.9142 19.25 14.25 18.9142 14.25 18.5C14.25 18.0858 13.9142 17.75 13.5 17.75V19.25ZM8.75 15C8.75 14.5858 8.41421 14.25 8 14.25C7.58579 14.25 7.25 14.5858 7.25 15H8.75ZM7.25 16C7.25 16.4142 7.58579 16.75 8 16.75C8.41421 16.75 8.75 16.4142 8.75 16H7.25ZM16.75 15C16.75 14.5858 16.4142 14.25 16 14.25C15.5858 14.25 15.25 14.5858 15.25 15H16.75ZM15.25 16C15.25 16.4142 15.5858 16.75 16 16.75C16.4142 16.75 16.75 16.4142 16.75 16H15.25ZM2.25 13C2.25 13.4142 2.58579 13.75 3 13.75C3.41421 13.75 3.75 13.4142 3.75 13H2.25ZM13 10V9.25H12.8229L12.6646 9.32918L13 10ZM10.2894 11.3553L9.95403 10.6845H9.95403L10.2894 11.3553ZM13 3.75C12.5858 3.75 12.25 4.08579 12.25 4.5C12.25 4.91421 12.5858 5.25 13 5.25V3.75ZM19 5.25C19.4142 5.25 19.75 4.91421 19.75 4.5C19.75 4.08579 19.4142 3.75 19 3.75V5.25ZM13 6.75C12.5858 6.75 12.25 7.08579 12.25 7.5C12.25 7.91421 12.5858 8.25 13 8.25V6.75ZM19 8.25C19.4142 8.25 19.75 7.91421 19.75 7.5C19.75 7.08579 19.4142 6.75 19 6.75V8.25ZM18.25 13.5V16H19.75V13.5H18.25ZM13 21.25H11V22.75H13V21.25ZM5.75 16V15H4.25V16H5.75ZM11 21.25C9.56458 21.25 8.56347 21.2484 7.80812 21.1469C7.07435 21.0482 6.68577 20.8678 6.40901 20.591L5.34835 21.6516C5.95027 22.2536 6.70814 22.5125 7.60825 22.6335C8.48678 22.7516 9.60699 22.75 11 22.75V21.25ZM4.25 16C4.25 17.393 4.24841 18.5132 4.36652 19.3918C4.48754 20.2919 4.74643 21.0497 5.34835 21.6516L6.40901 20.591C6.13225 20.3142 5.9518 19.9257 5.85315 19.1919C5.75159 18.4365 5.75 17.4354 5.75 16H4.25ZM18.25 16C18.25 17.4354 18.2484 18.4365 18.1469 19.1919C18.0482 19.9257 17.8678 20.3142 17.591 20.591L18.6517 21.6516C19.2536 21.0497 19.5125 20.2919 19.6335 19.3918C19.7516 18.5132 19.75 17.393 19.75 16H18.25ZM13 22.75C14.393 22.75 15.5132 22.7516 16.3918 22.6335C17.2919 22.5125 18.0497 22.2536 18.6517 21.6516L17.591 20.591C17.3142 20.8678 16.9257 21.0482 16.1919 21.1469C15.4365 21.2484 14.4354 21.25 13 21.25V22.75ZM19.75 13.5C19.75 13.0594 19.7516 12.7665 19.7179 12.5105L18.2308 12.7063C18.2484 12.8402 18.25 13.0117 18.25 13.5H19.75ZM15.5 10.75C15.9883 10.75 16.1598 10.7516 16.2937 10.7692L16.4895 9.28208C16.2335 9.24838 15.9406 9.25 15.5 9.25V10.75ZM19.7179 12.5105C19.4964 10.8278 18.1722 9.50362 16.4895 9.28208L16.2937 10.7692C17.3033 10.9022 18.0978 11.6967 18.2308 12.7063L19.7179 12.5105ZM5.75 15C5.75 14.0516 5.75072 13.3904 5.79718 12.8778C5.8427 12.3755 5.92737 12.0899 6.05144 11.875L4.7524 11.125C4.47455 11.6062 4.35826 12.1361 4.3033 12.7424C4.24928 13.3384 4.25 14.0792 4.25 15H5.75ZM10 9.25C9.07919 9.25 8.33843 9.24928 7.7424 9.3033C7.13605 9.35826 6.60625 9.47455 6.125 9.7524L6.875 11.0514C7.0899 10.9274 7.37548 10.8427 7.87779 10.7972C8.39041 10.7507 9.05158 10.75 10 10.75V9.25ZM6.05144 11.875C6.24892 11.533 6.53296 11.2489 6.875 11.0514L6.125 9.7524C5.55493 10.0815 5.08154 10.5549 4.7524 11.125L6.05144 11.875ZM5 12.25H4V13.75H5V12.25ZM1.25 15V17H2.75V15H1.25ZM4 19.75H5V18.25H4V19.75ZM1.25 17C1.25 17.4502 1.24841 17.8633 1.2933 18.1972C1.34109 18.5527 1.45354 18.9284 1.76256 19.2374L2.82322 18.1768C2.82277 18.1763 2.82279 18.1763 2.82307 18.1766C2.82335 18.177 2.82351 18.1772 2.82347 18.1772C2.82341 18.1771 2.82286 18.1762 2.82186 18.1743C2.82085 18.1724 2.81923 18.1691 2.81716 18.164C2.8082 18.1423 2.79291 18.0939 2.77992 17.9973C2.75159 17.7866 2.75 17.4926 2.75 17H1.25ZM4 18.25C3.50739 18.25 3.21339 18.2484 3.00266 18.2201C2.90611 18.2071 2.85775 18.1918 2.83597 18.1828C2.83092 18.1808 2.82761 18.1791 2.82567 18.1781C2.82376 18.1771 2.82292 18.1766 2.82283 18.1765C2.82277 18.1765 2.823 18.1766 2.82335 18.1769C2.8237 18.1772 2.82368 18.1772 2.82322 18.1768L1.76256 19.2374C2.07159 19.5465 2.44731 19.6589 2.80279 19.7067C3.1367 19.7516 3.5498 19.75 4 19.75V18.25ZM4 12.25C3.5498 12.25 3.1367 12.2484 2.80279 12.2933C2.44731 12.3411 2.07159 12.4535 1.76256 12.7626L2.82322 13.8232C2.82368 13.8228 2.8237 13.8228 2.82335 13.8231C2.823 13.8234 2.82277 13.8235 2.82283 13.8235C2.82292 13.8234 2.82376 13.8229 2.82567 13.8219C2.8276 13.8209 2.83092 13.8192 2.83596 13.8172C2.85774 13.8082 2.90611 13.7929 3.00266 13.7799C3.21339 13.7516 3.50739 13.75 4 13.75V12.25ZM2.75 15C2.75 14.5074 2.75159 14.2134 2.77992 14.0027C2.79291 13.9061 2.8082 13.8577 2.81716 13.836C2.81923 13.8309 2.82085 13.8276 2.82186 13.8257C2.82286 13.8238 2.82341 13.8229 2.82347 13.8228C2.82351 13.8228 2.82335 13.823 2.82307 13.8233C2.82279 13.8237 2.82277 13.8237 2.82322 13.8232L1.76256 12.7626C1.45354 13.0716 1.34109 13.4473 1.2933 13.8028C1.24841 14.1367 1.25 14.5498 1.25 15H2.75ZM19 13.75H20V12.25H19V13.75ZM21.25 15V17H22.75V15H21.25ZM20 18.25H19V19.75H20V18.25ZM21.25 17C21.25 17.4926 21.2484 17.7866 21.2201 17.9973C21.2071 18.0939 21.1918 18.1423 21.1828 18.164C21.1808 18.1691 21.1791 18.1724 21.1781 18.1743C21.1771 18.1762 21.1766 18.1771 21.1765 18.1772C21.1765 18.1772 21.1766 18.177 21.1769 18.1766C21.1772 18.1763 21.1772 18.1763 21.1768 18.1768L22.2374 19.2374C22.5465 18.9284 22.6589 18.5527 22.7067 18.1972C22.7516 17.8633 22.75 17.4502 22.75 17H21.25ZM20 19.75C20.4502 19.75 20.8633 19.7516 21.1972 19.7067C21.5527 19.6589 21.9284 19.5465 22.2374 19.2374L21.1768 18.1768C21.1763 18.1772 21.1763 18.1772 21.1766 18.1769C21.177 18.1766 21.1772 18.1765 21.1772 18.1765C21.1771 18.1766 21.1762 18.1771 21.1743 18.1781C21.1724 18.1791 21.1691 18.1808 21.164 18.1828C21.1423 18.1918 21.0939 18.2071 20.9973 18.2201C20.7866 18.2484 20.4926 18.25 20 18.25V19.75ZM20 13.75C20.4926 13.75 20.7866 13.7516 20.9973 13.7799C21.0939 13.7929 21.1423 13.8082 21.164 13.8172C21.1691 13.8192 21.1724 13.8209 21.1743 13.8219C21.1762 13.8229 21.1771 13.8234 21.1772 13.8235C21.1772 13.8235 21.177 13.8234 21.1766 13.8231C21.1763 13.8228 21.1763 13.8228 21.1768 13.8232L22.2374 12.7626C21.9284 12.4535 21.5527 12.3411 21.1972 12.2933C20.8633 12.2484 20.4502 12.25 20 12.25V13.75ZM22.75 15C22.75 14.5498 22.7516 14.1367 22.7067 13.8028C22.6589 13.4473 22.5465 13.0716 22.2374 12.7626L21.1768 13.8232C21.1772 13.8237 21.1772 13.8237 21.1769 13.8233C21.1766 13.823 21.1765 13.8228 21.1765 13.8228C21.1766 13.8229 21.1771 13.8238 21.1781 13.8257C21.1791 13.8276 21.1808 13.8309 21.1828 13.836C21.1918 13.8577 21.2071 13.9061 21.2201 14.0027C21.2484 14.2134 21.25 14.5074 21.25 15H22.75ZM11 19.25H13.5V17.75H11V19.25ZM7.25 15V16H8.75V15H7.25ZM15.25 15V16H16.75V15H15.25ZM3.75 13V8H2.25V13H3.75ZM3.25 7C3.25 7.13807 3.13807 7.25 3 7.25V8.75C3.9665 8.75 4.75 7.9665 4.75 7H3.25ZM3 7.25C2.86193 7.25 2.75 7.13807 2.75 7H1.25C1.25 7.9665 2.0335 8.75 3 8.75V7.25ZM2.75 7C2.75 6.86193 2.86193 6.75 3 6.75V5.25C2.0335 5.25 1.25 6.0335 1.25 7H2.75ZM3 6.75C3.13807 6.75 3.25 6.86193 3.25 7H4.75C4.75 6.0335 3.9665 5.25 3 5.25V6.75ZM10.75 11.1764V4.5H9.25V11.1764H10.75ZM10.75 4.5C10.75 3.96033 10.7642 3.52373 10.9208 3.21041C10.9863 3.07953 11.0737 2.9802 11.208 2.90562C11.3501 2.82664 11.5915 2.75 12 2.75V1.25C11.4085 1.25 10.8999 1.36086 10.4795 1.59438C10.0513 1.8323 9.76374 2.17047 9.57918 2.53959C9.23584 3.22627 9.25 4.03967 9.25 4.5H10.75ZM12 2.75H20V1.25H12V2.75ZM20 2.75C20.4085 2.75 20.6499 2.82664 20.792 2.90562C20.9263 2.9802 21.0137 3.07953 21.0792 3.21041C21.2358 3.52373 21.25 3.96033 21.25 4.5H22.75C22.75 4.03967 22.7642 3.22627 22.4208 2.53959C22.2363 2.17047 21.9487 1.8323 21.5205 1.59438C21.1001 1.36086 20.5915 1.25 20 1.25V2.75ZM21.25 4.5V7.5H22.75V4.5H21.25ZM21.25 7.5C21.25 8.03967 21.2358 8.47627 21.0792 8.78959C21.0137 8.92047 20.9263 9.0198 20.792 9.09438C20.6499 9.17336 20.4085 9.25 20 9.25V10.75C20.5915 10.75 21.1001 10.6391 21.5205 10.4056C21.9487 10.1677 22.2363 9.82953 22.4208 9.46041C22.7642 8.77373 22.75 7.96033 22.75 7.5H21.25ZM20 9.25H13V10.75H20V9.25ZM12.6646 9.32918L9.95403 10.6845L10.6249 12.0261L13.3354 10.6708L12.6646 9.32918ZM9.25 11.1764C9.25 11.8826 9.99319 12.3419 10.6249 12.0261L9.95403 10.6845C10.3197 10.5016 10.75 10.7675 10.75 11.1764H9.25ZM13 5.25H19V3.75H13V5.25ZM13 8.25H19V6.75H13V8.25Z" fill="#3B8AC9"/>
</svg>
