<svg width="24" height="24" viewBox="0 0 24 24" fill="none" xmlns="http://www.w3.org/2000/svg">
<path d="M2 9V6.5C2 4.01 4.01 2 6.5 2H9" stroke="#3B8AC9" stroke-width="1.5" stroke-linecap="round" stroke-linejoin="round"/>
<path d="M15 2H17.5C19.99 2 22 4.01 22 6.5V9" stroke="#3B8AC9" stroke-width="1.5" stroke-linecap="round" stroke-linejoin="round"/>
<path d="M22 16V17.5C22 19.99 19.99 22 17.5 22H16" stroke="#3B8AC9" stroke-width="1.5" stroke-linecap="round" stroke-linejoin="round"/>
<path d="M9 22H6.5C4.01 22 2 19.99 2 17.5V15" stroke="#3B8AC9" stroke-width="1.5" stroke-linecap="round" stroke-linejoin="round"/>
<path d="M9.35513 8.76145L14.0242 7.20511C16.1194 6.50668 17.2578 7.65056 16.5649 9.74585L15.0085 14.4149C13.9637 17.555 12.2478 17.555 11.2029 14.4149L10.741 13.029L9.35513 12.5671C6.21496 11.5222 6.21496 9.81184 9.35513 8.76145Z" stroke="#3B8AC9" stroke-width="1.5" stroke-linecap="round" stroke-linejoin="round"/>
<path d="M10.8453 12.7925L12.8141 10.8182" stroke="#3B8AC9" stroke-width="1.5" stroke-linecap="round" stroke-linejoin="round"/>
</svg>
