<svg width="24" height="24" viewBox="0 0 24 24" fill="none" xmlns="http://www.w3.org/2000/svg">
<path d="M18 12V7C18 5.11438 18 4.17157 17.4142 3.58579C16.8284 3 15.8856 3 14 3H8C6.11438 3 5.17157 3 4.58579 3.58579C4 4.17157 4 5.11438 4 7V16C4 17.8856 4 18.8284 4.58579 19.4142C5.17157 20 6.11438 20 8 20H12" stroke="#3B8AC9" stroke-width="1.5" stroke-linecap="round"/>
<path d="M7 6H15" stroke="#3B8AC9" stroke-width="1.5" stroke-linecap="round"/>
<path d="M7 9H11" stroke="#3B8AC9" stroke-width="1.5" stroke-linecap="round"/>
<path d="M7 12H8" stroke="#3B8AC9" stroke-width="1.5" stroke-linecap="round"/>
<circle cx="15" cy="16" r="5" stroke="#3B8AC9" stroke-width="1.5"/>
<path d="M15 14V16H17" stroke="#3B8AC9" stroke-width="1.5" stroke-linecap="round" stroke-linejoin="round"/>
</svg>
