<svg width="24" height="24" viewBox="0 0 24 24" fill="none" xmlns="http://www.w3.org/2000/svg">
<path d="M15 16L16.1464 14.8536C16.4614 14.5386 17 14.7617 17 15.2071V19" stroke="#3B8AC9" stroke-width="1.5" stroke-linecap="round" stroke-linejoin="round"/>
<path d="M7 1V4" stroke="#3B8AC9" stroke-width="1.5" stroke-miterlimit="10" stroke-linecap="round" stroke-linejoin="round"/>
<path d="M15 1V4" stroke="#3B8AC9" stroke-width="1.5" stroke-miterlimit="10" stroke-linecap="round" stroke-linejoin="round"/>
<path d="M20 7.5V12.63C19.11 11.92 17.98 11.5 16.75 11.5C15.52 11.5 14.37 11.93 13.47 12.66C12.26 13.61 11.5 15.1 11.5 16.75C11.5 17.73 11.78 18.67 12.26 19.45C12.63 20.06 13.11 20.59 13.68 21H7C3.5 21 2 19 2 16V7.5C2 4.5 3.5 2.5 7 2.5H15C18.5 2.5 20 4.5 20 7.5Z" stroke="#3B8AC9" stroke-width="1.5" stroke-miterlimit="10" stroke-linecap="round" stroke-linejoin="round"/>
<path d="M6 10H12" stroke="#3B8AC9" stroke-width="1.5" stroke-miterlimit="10" stroke-linecap="round" stroke-linejoin="round"/>
<path d="M6 15H8.62" stroke="#3B8AC9" stroke-width="1.5" stroke-miterlimit="10" stroke-linecap="round" stroke-linejoin="round"/>
<path d="M22 16.75C22 17.73 21.72 18.67 21.24 19.45C20.96 19.93 20.61 20.35 20.2 20.69C19.28 21.51 18.08 22 16.75 22C15.6 22 14.54 21.63 13.68 21C13.11 20.59 12.63 20.06 12.26 19.45C11.78 18.67 11.5 17.73 11.5 16.75C11.5 15.1 12.26 13.61 13.47 12.66C14.37 11.93 15.52 11.5 16.75 11.5C17.98 11.5 19.11 11.92 20 12.63C21.22 13.59 22 15.08 22 16.75Z" stroke="#3B8AC9" stroke-width="1.5" stroke-miterlimit="10" stroke-linecap="round" stroke-linejoin="round"/>
</svg>
