<svg width="24" height="24" viewBox="0 0 24 24" fill="none" xmlns="http://www.w3.org/2000/svg">
<path d="M2 9V6.5C2 4.01 4.01 2 6.5 2H9" stroke="#3B8AC9" stroke-width="1.5" stroke-linecap="round" stroke-linejoin="round"/>
<path d="M15 2H17.5C19.99 2 22 4.01 22 6.5V9" stroke="#3B8AC9" stroke-width="1.5" stroke-linecap="round" stroke-linejoin="round"/>
<path d="M22 16V17.5C22 19.99 19.99 22 17.5 22H16" stroke="#3B8AC9" stroke-width="1.5" stroke-linecap="round" stroke-linejoin="round"/>
<path d="M9 22H6.5C4.01 22 2 19.99 2 17.5V15" stroke="#3B8AC9" stroke-width="1.5" stroke-linecap="round" stroke-linejoin="round"/>
<path d="M12.275 16.55C14.636 16.55 16.55 14.636 16.55 12.275C16.55 9.91398 14.636 8 12.275 8C9.91398 8 8 9.91398 8 12.275C8 14.636 9.91398 16.55 12.275 16.55Z" stroke="#3B8AC9" stroke-width="1.5" stroke-linecap="round" stroke-linejoin="round"/>
<path d="M17 17.0001L16.1 16.1001" stroke="#3B8AC9" stroke-width="1.5" stroke-linecap="round" stroke-linejoin="round"/>
</svg>
