<svg width="24" height="24" viewBox="0 0 24 24" fill="none" xmlns="http://www.w3.org/2000/svg">
<path d="M2 9V6.5C2 4.01 4.01 2 6.5 2H9" stroke="#3B8AC9" stroke-width="1.5" stroke-linecap="round" stroke-linejoin="round"/>
<path d="M15 2H17.5C19.99 2 22 4.01 22 6.5V9" stroke="#3B8AC9" stroke-width="1.5" stroke-linecap="round" stroke-linejoin="round"/>
<path d="M22 16V17.5C22 19.99 19.99 22 17.5 22H16" stroke="#3B8AC9" stroke-width="1.5" stroke-linecap="round" stroke-linejoin="round"/>
<path d="M9 22H6.5C4.01 22 2 19.99 2 17.5V15" stroke="#3B8AC9" stroke-width="1.5" stroke-linecap="round" stroke-linejoin="round"/>
<path d="M12.8638 7.72209L13.7437 9.49644C13.8637 9.74343 14.1837 9.98035 14.4536 10.0257L16.0485 10.2929C17.0684 10.4643 17.3083 11.2103 16.5734 11.9462L15.3335 13.1964C15.1236 13.4081 15.0086 13.8164 15.0736 14.1087L15.4285 15.6562C15.7085 16.8812 15.0636 17.355 13.9887 16.7148L12.4939 15.8226C12.2239 15.6613 11.7789 15.6613 11.504 15.8226L10.0091 16.7148C8.93925 17.355 8.28932 16.8761 8.56929 15.6562L8.92425 14.1087C8.98925 13.8164 8.87426 13.4081 8.66428 13.1964L7.42442 11.9462C6.6945 11.2103 6.92947 10.4643 7.94936 10.2929L9.54419 10.0257C9.80916 9.98035 10.1291 9.74343 10.2491 9.49644L11.129 7.72209C11.609 6.7593 12.3889 6.7593 12.8638 7.72209Z" stroke="#3B8AC9" stroke-width="1.5" stroke-linecap="round" stroke-linejoin="round"/>
</svg>
