<svg width="24" height="24" viewBox="0 0 24 24" fill="none" xmlns="http://www.w3.org/2000/svg">
<path d="M12 18.2C14.2091 18.2 16 16.4092 16 14.2C16 11.9909 14.2091 10.2 12 10.2C9.79086 10.2 8 11.9909 8 14.2C8 16.4092 9.79086 18.2 12 18.2Z" stroke="#3B8AC9" stroke-width="1.5" stroke-miterlimit="10" stroke-linecap="round" stroke-linejoin="round"/>
<path d="M13.07 15.31L10.95 13.2" stroke="#3B8AC9" stroke-width="1.5" stroke-miterlimit="10" stroke-linecap="round" stroke-linejoin="round"/>
<path d="M13.05 13.22L10.93 15.34" stroke="#3B8AC9" stroke-width="1.5" stroke-miterlimit="10" stroke-linecap="round" stroke-linejoin="round"/>
<path d="M8.00001 22H16C20.02 22 20.74 20.39 20.95 18.43L21.7 10.43C21.97 7.99 21.27 6 17 6H7.00001C2.73001 6 2.03001 7.99 2.30001 10.43L3.05001 18.43C3.26001 20.39 3.98001 22 8.00001 22Z" stroke="#3B8AC9" stroke-width="1.5" stroke-miterlimit="10" stroke-linecap="round" stroke-linejoin="round"/>
<path d="M8 6V5.2C8 3.43 8 2 11.2 2H12.8C16 2 16 3.43 16 5.2V6" stroke="#3B8AC9" stroke-width="1.5" stroke-miterlimit="10" stroke-linecap="round" stroke-linejoin="round"/>
<path d="M21.65 11C19.92 12.26 18 13.14 16.01 13.64" stroke="#3B8AC9" stroke-width="1.5" stroke-miterlimit="10" stroke-linecap="round" stroke-linejoin="round"/>
<path d="M2.62 11.27C4.29 12.41 6.11 13.22 8 13.68" stroke="#3B8AC9" stroke-width="1.5" stroke-miterlimit="10" stroke-linecap="round" stroke-linejoin="round"/>
</svg>
