<?xml version="1.0" standalone="no"?>
<!DOCTYPE svg PUBLIC "-//W3C//DTD SVG 20010904//EN"
 "http://www.w3.org/TR/2001/REC-SVG-20010904/DTD/svg10.dtd">
<svg version="1.0" xmlns="http://www.w3.org/2000/svg"
 width="240.000000pt" height="240.000000pt" viewBox="0 0 240.000000 240.000000"
 preserveAspectRatio="xMidYMid meet">

<g transform="translate(0.000000,240.000000) scale(0.100000,-0.100000)"
fill="#000000" stroke="none">
<path d="M0 1965 c0 -407 1 -435 17 -435 18 0 492 59 506 63 5 1 28 61 51 132
l42 130 138 0 138 0 85 180 c47 99 104 222 128 273 l44 92 -575 0 -574 0 0
-435z"/>
<path d="M1378 2130 l127 -269 140 -3 139 -3 42 -130 42 -130 243 -32 c134
-17 254 -32 267 -32 l22 -1 0 435 0 435 -574 0 -574 0 126 -270z"/>
<path d="M766 1748 c-24 -68 -79 -124 -138 -139 l-45 -12 -12 -66 c-13 -70
-32 -293 -25 -300 2 -2 4 6 4 18 0 18 4 21 20 16 14 -4 20 -2 20 8 0 16 37 67
50 67 4 0 15 -16 25 -36 10 -22 22 -34 30 -30 10 4 15 -10 19 -52 15 -155 30
-235 57 -316 38 -113 75 -184 144 -272 88 -112 87 -108 76 -137 -15 -38 -51
-67 -84 -67 -30 0 -30 0 -11 -22 33 -37 167 -132 237 -168 l67 -35 74 39 c82
43 175 111 252 183 27 26 38 38 24 26 -36 -32 -80 -30 -112 5 -47 49 -44 60
29 153 130 162 190 312 212 538 6 57 11 109 11 116 0 8 8 11 19 8 13 -3 20 2
24 19 3 13 12 32 20 42 13 18 16 17 41 -27 18 -30 32 -44 42 -40 10 3 14 -2
14 -18 0 -12 2 -20 6 -17 7 7 -12 217 -27 299 l-12 66 -42 11 c-72 19 -129 82
-149 165 l-6 27 -418 0 -417 0 -19 -52z m497 -48 l42 -1 -32 -25 c-29 -23 -31
-28 -21 -55 14 -39 7 -44 -25 -18 l-27 20 -27 -20 c-32 -26 -39 -21 -25 18 10
27 8 32 -21 55 l-32 25 43 1 c23 0 42 4 42 9 0 5 5 22 11 38 l12 28 9 -37 c10
-36 12 -38 51 -38z m-429 -194 c9 -30 16 -60 16 -67 0 -25 15 4 31 59 14 53
18 57 47 60 18 2 32 -1 32 -5 0 -5 -15 -54 -33 -108 -33 -99 -34 -100 -68
-103 l-34 -3 -33 99 c-17 54 -32 103 -32 110 0 7 13 12 29 12 27 0 31 -5 45
-54z m221 6 l30 -47 5 45 c4 40 8 45 33 48 l27 3 0 -110 c0 -108 -1 -111 -22
-111 -16 0 -32 14 -53 48 l-30 47 -3 -47 c-3 -46 -5 -48 -33 -48 l-29 0 0 110
c0 107 1 110 23 110 15 0 31 -14 52 -48z m365 -62 l0 -110 -30 0 -30 0 0 110
0 110 30 0 30 0 0 -110z m177 90 c47 -28 62 -85 37 -136 -24 -49 -54 -64 -126
-64 l-58 0 0 110 0 110 58 0 c39 0 67 -6 89 -20z m-282 -65 c14 -13 25 -36 25
-50 0 -23 -3 -25 -52 -27 -41 -1 -45 -2 -18 -5 19 -3 41 -10 48 -16 20 -17
-13 -37 -60 -37 -50 0 -78 28 -78 77 0 76 82 112 135 58z m-75 -186 c7 -11 10
-26 7 -32 -7 -18 245 -197 260 -185 19 15 52 -1 59 -28 7 -26 -10 -54 -31 -54
-8 0 -33 -59 -62 -147 -47 -140 -49 -149 -34 -175 14 -24 14 -28 -3 -47 -24
-26 -41 -26 -66 -1 -18 18 -33 20 -175 20 -93 0 -155 -4 -155 -10 0 -5 -9 -14
-19 -20 -41 -21 -84 24 -59 62 13 19 9 37 -32 166 -36 112 -51 147 -67 153
-24 9 -36 35 -28 60 6 19 32 28 70 26 24 -1 256 163 251 178 -2 6 0 20 5 33
11 30 63 31 79 1z m-7 -729 c6 -23 52 -28 60 -7 3 9 10 9 30 -2 18 -10 25 -20
22 -31 -7 -21 27 -53 47 -45 18 7 43 -41 27 -51 -6 -3 -7 -18 -4 -34 4 -19 2
-29 -8 -33 -10 -4 -20 8 -31 37 -9 23 -31 56 -49 72 l-32 29 27 -30 c31 -34
61 -101 53 -115 -11 -18 -21 -10 -34 25 -11 31 -14 33 -32 22 -19 -12 -19 -12
3 -29 20 -15 21 -19 8 -28 -18 -12 -110 -13 -110 -2 0 5 10 14 23 20 19 9 14
11 -33 11 -47 0 -52 -2 -32 -11 12 -6 22 -15 22 -20 0 -11 -82 -10 -100 2 -13
9 -12 12 5 25 19 15 19 15 -2 36 l-21 21 -7 -32 c-6 -29 -29 -50 -41 -37 -7 7
27 87 37 87 5 0 9 10 9 23 -1 15 -11 1 -31 -40 -33 -67 -66 -87 -54 -34 3 16
2 32 -4 35 -17 11 9 57 29 51 20 -6 55 29 45 45 -7 12 22 39 43 40 6 0 12 -7
12 -14 0 -12 6 -13 30 -5 17 6 30 17 30 25 0 23 57 18 63 -6z"/>
<path d="M1510 1450 c0 -49 1 -50 30 -50 29 0 50 22 50 54 0 22 -28 46 -56 46
-22 0 -24 -4 -24 -50z"/>
<path d="M1248 1443 c6 -2 18 -2 25 0 6 3 1 5 -13 5 -14 0 -19 -2 -12 -5z"/>
<path d="M1042 1143 c-67 -49 -122 -95 -122 -104 0 -22 142 -68 149 -48 8 25
64 70 93 76 l29 6 -3 75 c-2 42 -8 77 -14 79 -6 2 -65 -36 -132 -84z"/>
<path d="M1217 1224 c-4 -4 -7 -40 -7 -79 l0 -72 32 -7 c18 -4 46 -22 68 -46
l36 -39 67 21 c45 15 67 27 67 38 0 8 -52 52 -114 97 -121 88 -138 98 -149 87z"/>
<path d="M1155 1046 c-50 -22 -78 -61 -79 -107 -1 -25 4 -44 12 -46 6 -3 12 0
12 7 0 6 -4 8 -10 5 -14 -9 -13 -3 13 46 13 24 30 44 38 44 8 0 20 8 27 18 17
23 59 22 66 -1 4 -11 15 -18 29 -18 15 1 23 -6 25 -19 2 -11 12 -31 22 -45
l20 -25 0 29 c0 44 -35 92 -80 110 -48 19 -56 19 -95 2z"/>
<path d="M1187 1013 c-4 -3 -7 -15 -7 -25 0 -21 36 -25 43 -5 9 27 -17 50 -36
30z"/>
<path d="M905 1001 c-9 -16 84 -298 100 -305 10 -3 29 14 56 49 l41 54 -27 55
c-15 31 -25 66 -23 82 3 24 -2 29 -47 44 -87 30 -93 31 -100 21z"/>
<path d="M1412 986 l-64 -22 -3 -46 c-2 -28 -11 -59 -24 -77 -24 -33 -24 -33
26 -103 21 -29 39 -45 48 -42 17 7 109 279 101 299 -7 18 -7 18 -84 -9z"/>
<path d="M1130 965 c0 -8 5 -15 10 -15 6 0 10 7 10 15 0 8 -4 15 -10 15 -5 0
-10 -7 -10 -15z"/>
<path d="M1252 969 c2 -6 8 -10 13 -10 5 0 11 4 13 10 2 6 -4 11 -13 11 -9 0
-15 -5 -13 -11z"/>
<path d="M1155 940 c-4 -6 13 -10 45 -10 32 0 49 4 45 10 -3 6 -24 10 -45 10
-21 0 -42 -4 -45 -10z"/>
<path d="M1122 899 c-10 -15 -11 -24 -3 -32 15 -15 23 -3 19 27 -3 27 -3 27
-16 5z"/>
<path d="M1260 892 c0 -22 5 -32 15 -32 19 0 19 19 0 44 -14 19 -15 18 -15
-12z"/>
<path d="M1300 900 c0 -5 5 -10 11 -10 5 0 7 5 4 10 -3 6 -8 10 -11 10 -2 0
-4 -4 -4 -10z"/>
<path d="M1088 863 c22 -41 61 -63 113 -63 40 0 55 5 84 31 19 17 35 36 35 43
0 6 -7 2 -16 -9 -13 -17 -27 -20 -98 -20 -70 0 -88 3 -106 20 l-23 20 11 -22z"/>
<path d="M1080 747 c-65 -87 -66 -87 119 -87 117 0 160 3 163 12 7 21 -75 128
-92 121 -29 -12 -108 -15 -129 -4 -18 10 -25 5 -61 -42z"/>
<path d="M1250 512 c0 -6 9 -12 20 -15 11 -3 20 -3 20 -1 0 2 -9 8 -20 14 -11
6 -20 7 -20 2z"/>
<path d="M1190 483 c0 -13 5 -23 10 -23 13 0 13 11 0 30 -8 12 -10 11 -10 -7z"/>
<path d="M1110 459 c0 -4 3 -15 6 -24 5 -13 8 -14 15 -3 13 20 11 35 -6 35 -8
0 -15 -4 -15 -8z"/>
<path d="M1273 441 c6 -18 16 -27 24 -24 19 8 16 19 -11 36 -24 16 -24 16 -13
-12z"/>
<path d="M1171 422 c-12 -22 2 -32 41 -32 14 0 19 6 16 23 -4 29 -43 35 -57 9z"/>
<path d="M0 660 l0 -660 185 0 c102 0 185 2 185 4 0 3 25 134 55 293 30 158
51 290 47 294 -4 3 -53 39 -109 78 -57 40 -103 76 -103 79 0 4 19 63 41 131
l42 125 -164 158 c-90 86 -167 157 -171 158 -5 0 -8 -297 -8 -660z"/>
<path d="M617 1296 c-9 -14 -17 -33 -17 -42 0 -10 -5 -14 -15 -10 -12 4 -15
-6 -15 -58 0 -146 53 -345 131 -496 46 -88 160 -236 190 -245 26 -9 70 22 83
57 8 22 2 34 -45 89 -134 158 -211 353 -226 570 -5 87 -8 96 -24 92 -14 -4
-19 0 -19 14 0 11 -6 27 -13 37 -13 17 -14 17 -30 -8z m28 -46 c0 -35 -21 -53
-31 -26 -9 23 5 68 19 63 7 -2 12 -19 12 -37z m-33 -37 c17 -15 19 -15 36 0
30 27 37 20 38 -36 1 -66 34 -257 45 -257 4 0 10 -22 14 -50 4 -27 10 -50 14
-50 5 0 16 -19 27 -42 10 -24 21 -45 24 -48 9 -8 29 -44 40 -67 5 -13 14 -23
20 -23 5 0 10 -6 10 -13 0 -7 8 -20 18 -29 36 -33 62 -70 62 -88 0 -10 -12
-25 -26 -35 -22 -14 -30 -15 -50 -4 -13 7 -24 16 -24 19 0 4 -18 27 -39 51
-22 23 -38 46 -35 50 2 4 -3 10 -11 13 -9 3 -20 16 -25 28 -6 13 -19 37 -29
53 -11 17 -20 37 -20 46 -1 9 -8 22 -16 29 -9 7 -14 19 -11 26 3 7 -2 18 -10
25 -8 7 -13 17 -11 24 3 6 -1 19 -9 30 -17 23 -18 39 -1 29 6 -4 4 2 -7 14
-10 12 -16 28 -13 35 3 8 1 19 -4 24 -5 5 -11 30 -13 55 -2 25 -6 50 -10 56
-3 5 -5 21 -5 33 1 13 -2 32 -6 42 -5 11 -3 17 6 17 10 0 10 3 1 12 -13 13
-17 48 -5 48 3 0 15 -7 25 -17z"/>
<path d="M625 1150 c4 -6 11 -8 16 -5 14 9 11 15 -7 15 -8 0 -12 -5 -9 -10z"/>
<path d="M635 1100 c4 -6 11 -8 16 -5 14 9 11 15 -7 15 -8 0 -12 -5 -9 -10z"/>
<path d="M640 1050 c0 -5 4 -10 9 -10 6 0 13 5 16 10 3 6 -1 10 -9 10 -9 0
-16 -4 -16 -10z"/>
<path d="M640 996 c0 -2 7 -6 15 -10 8 -3 15 -1 15 4 0 6 -7 10 -15 10 -8 0
-15 -2 -15 -4z"/>
<path d="M665 940 c4 -6 11 -8 16 -5 14 9 11 15 -7 15 -8 0 -12 -5 -9 -10z"/>
<path d="M680 890 c0 -5 5 -10 10 -10 6 0 10 5 10 10 0 6 -4 10 -10 10 -5 0
-10 -4 -10 -10z"/>
<path d="M720 790 c-13 -8 -12 -10 3 -10 9 0 17 5 17 10 0 12 -1 12 -20 0z"/>
<path d="M742 741 c-11 -7 -11 -9 2 -14 10 -4 16 -1 16 8 0 17 -1 17 -18 6z"/>
<path d="M765 690 c-3 -5 -2 -10 4 -10 5 0 13 5 16 10 3 6 2 10 -4 10 -5 0
-13 -4 -16 -10z"/>
<path d="M795 640 c3 -5 8 -10 11 -10 2 0 4 5 4 10 0 6 -5 10 -11 10 -5 0 -7
-4 -4 -10z"/>
<path d="M825 600 c-3 -5 -2 -10 4 -10 5 0 13 5 16 10 3 6 2 10 -4 10 -5 0
-13 -4 -16 -10z"/>
<path d="M865 561 c-3 -5 -1 -12 5 -16 5 -3 10 1 10 9 0 18 -6 21 -15 7z"/>
<path d="M905 521 c-3 -5 -1 -12 5 -16 5 -3 10 1 10 9 0 18 -6 21 -15 7z"/>
<path d="M1751 1302 c-6 -11 -11 -28 -11 -38 0 -11 -6 -15 -20 -11 -18 5 -20
0 -20 -53 0 -208 -96 -462 -234 -617 -43 -48 -48 -58 -40 -80 5 -14 21 -35 36
-46 38 -29 62 -15 134 75 138 171 220 400 236 656 4 56 3 62 -14 56 -13 -4
-18 0 -18 13 0 10 -9 29 -19 42 l-19 24 -11 -21z m35 -37 c8 -31 -2 -58 -19
-53 -14 5 -21 42 -13 64 8 22 25 17 32 -11z m-34 -52 c17 -15 19 -15 36 0 10
10 22 17 25 17 12 0 8 -35 -5 -48 -9 -9 -9 -12 1 -12 9 0 11 -6 6 -17 -4 -10
-7 -29 -6 -42 0 -13 -4 -30 -10 -37 -8 -10 -8 -14 0 -14 7 0 8 -8 1 -24 -5
-13 -6 -26 -4 -29 3 -3 0 -16 -7 -29 -7 -12 -12 -29 -10 -36 1 -8 -6 -23 -16
-35 -10 -11 -12 -17 -5 -13 16 10 15 -6 -2 -29 -8 -11 -12 -24 -9 -30 2 -7 -3
-18 -11 -25 -9 -7 -13 -17 -10 -22 3 -5 -2 -18 -12 -29 -9 -10 -14 -22 -11
-26 4 -3 1 -13 -5 -21 -15 -17 -34 -49 -47 -80 -6 -12 -17 -25 -26 -28 -8 -3
-13 -9 -11 -13 3 -4 -12 -25 -32 -48 -20 -22 -37 -44 -37 -49 0 -4 -12 -15
-26 -23 -22 -12 -28 -12 -52 4 -31 20 -35 47 -9 73 27 27 88 105 95 122 8 17
30 53 37 60 3 3 14 24 24 48 11 23 22 42 27 42 4 0 10 23 14 50 4 28 11 50 15
50 4 0 11 23 15 50 4 28 10 50 13 50 4 0 8 15 8 33 1 17 4 55 6 82 3 28 6 60
7 73 1 26 8 28 33 5z"/>
<path d="M1755 1150 c4 -6 11 -8 16 -5 14 9 11 15 -7 15 -8 0 -12 -5 -9 -10z"/>
<path d="M1750 1100 c0 -5 5 -10 10 -10 6 0 10 5 10 10 0 6 -4 10 -10 10 -5 0
-10 -4 -10 -10z"/>
<path d="M1735 1050 c3 -5 10 -10 16 -10 5 0 9 5 9 10 0 6 -7 10 -16 10 -8 0
-12 -4 -9 -10z"/>
<path d="M1730 990 c0 -5 4 -10 9 -10 6 0 13 5 16 10 3 6 -1 10 -9 10 -9 0
-16 -4 -16 -10z"/>
<path d="M1720 940 c0 -5 5 -10 10 -10 6 0 10 5 10 10 0 6 -4 10 -10 10 -5 0
-10 -4 -10 -10z"/>
<path d="M1700 890 c0 -5 5 -10 10 -10 6 0 10 5 10 10 0 6 -4 10 -10 10 -5 0
-10 -4 -10 -10z"/>
<path d="M1687 839 c7 -7 15 -10 18 -7 3 3 -2 9 -12 12 -14 6 -15 5 -6 -5z"/>
<path d="M1660 790 c0 -6 7 -10 15 -10 8 0 15 2 15 4 0 2 -7 6 -15 10 -8 3
-15 1 -15 -4z"/>
<path d="M1640 735 c0 -9 6 -12 15 -9 8 4 15 7 15 9 0 2 -7 5 -15 9 -9 3 -15
0 -15 -9z"/>
<path d="M1615 690 c3 -5 11 -10 16 -10 6 0 7 5 4 10 -3 6 -11 10 -16 10 -6 0
-7 -4 -4 -10z"/>
<path d="M1590 639 c0 -5 5 -7 10 -4 6 3 10 8 10 11 0 2 -4 4 -10 4 -5 0 -10
-5 -10 -11z"/>
<path d="M1560 600 c0 -5 5 -10 11 -10 5 0 7 5 4 10 -3 6 -8 10 -11 10 -2 0
-4 -4 -4 -10z"/>
<path d="M1520 554 c0 -8 5 -12 10 -9 6 4 8 11 5 16 -9 14 -15 11 -15 -7z"/>
<path d="M1480 514 c0 -8 5 -12 10 -9 6 4 8 11 5 16 -9 14 -15 11 -15 -7z"/>
<path d="M2225 1164 c-91 -86 -165 -157 -165 -158 0 -1 18 -56 40 -121 22 -65
40 -124 40 -130 0 -6 -49 -47 -110 -90 -89 -64 -109 -83 -105 -99 8 -35 105
-552 105 -559 0 -4 83 -7 185 -7 l185 0 0 660 c0 363 -2 660 -5 660 -2 0 -79
-70 -170 -156z"/>
<path d="M551 1114 c0 -11 3 -14 6 -6 3 7 2 16 -1 19 -3 4 -6 -2 -5 -13z"/>
<path d="M1841 1104 c0 -11 3 -14 6 -6 3 7 2 16 -1 19 -3 4 -6 -2 -5 -13z"/>
<path d="M571 984 c0 -11 3 -14 6 -6 3 7 2 16 -1 19 -3 4 -6 -2 -5 -13z"/>
<path d="M720 606 c0 -2 8 -10 18 -17 15 -13 16 -12 3 4 -13 16 -21 21 -21 13z"/>
<path d="M1639 563 c-13 -16 -12 -17 4 -4 9 7 17 15 17 17 0 8 -8 3 -21 -13z"/>
<path d="M785 520 c10 -11 20 -20 23 -20 3 0 -3 9 -13 20 -10 11 -20 20 -23
20 -3 0 3 -9 13 -20z"/>
<path d="M1604 518 l-19 -23 23 19 c21 18 27 26 19 26 -2 0 -12 -10 -23 -22z"/>
<path d="M845 450 c10 -11 20 -20 23 -20 3 0 -3 9 -13 20 -10 11 -20 20 -23
20 -3 0 3 -9 13 -20z"/>
<path d="M770 109 l-195 -109 624 0 c343 0 622 2 620 4 -7 6 -391 216 -395
216 -3 0 -53 -36 -113 -80 l-109 -79 -110 79 c-61 44 -114 80 -119 79 -4 -1
-96 -50 -203 -110z"/>
</g>
</svg>
